<?xml version="1.0" encoding="utf-8"?>
<!-- Generator: Adobe Illustrator 23.0.0, SVG Export Plug-In . SVG Version: 6.00 Build 0)  -->
<svg version="1.1" id="BACKGROUND" xmlns="http://www.w3.org/2000/svg" xmlns:xlink="http://www.w3.org/1999/xlink" x="0px" y="0px"
	 viewBox="0 0 750 500" style="enable-background:new 0 0 750 500;" xml:space="preserve">
<style type="text/css">
	.st0{fill:url(#SVGID_1_);}
	.st1{opacity:0.3;fill:url(#SVGID_2_);}
	.st2{opacity:0.3;fill:url(#SVGID_3_);}
	.st3{opacity:0.3;fill:url(#SVGID_4_);}
	.st4{opacity:0.3;fill:url(#SVGID_5_);}
	.st5{fill:#FFFFFF;}
</style>
<linearGradient id="SVGID_1_" gradientUnits="userSpaceOnUse" x1="-101.3447" y1="576.8064" x2="680.4091" y2="40.4676">
	<stop  offset="0" style="stop-color:#843C71"/>
	<stop  offset="1" style="stop-color:#906BD6"/>
</linearGradient>
<rect class="st0" width="750" height="500"/>
<g>
	<linearGradient id="SVGID_2_" gradientUnits="userSpaceOnUse" x1="-227.9357" y1="392.2906" x2="553.8201" y2="-144.0495">
		<stop  offset="0" style="stop-color:#843C71"/>
		<stop  offset="1" style="stop-color:#906BD6"/>
	</linearGradient>
	<path class="st1" d="M322.75,77.46c46.09-7.92,92.67-4.39,139.06-4.98c77.84-1,161.09-16.36,221.63-72.47H0v260.16
		c42.03-20.27,81.13-53.03,119.62-82.24C181.6,130.89,249.48,90.04,322.75,77.46z"/>
	<linearGradient id="SVGID_3_" gradientUnits="userSpaceOnUse" x1="-10.2103" y1="736.7565" x2="798.4382" y2="181.966">
		<stop  offset="0" style="stop-color:#843C71"/>
		<stop  offset="1" style="stop-color:#906BD6"/>
	</linearGradient>
	<path class="st2" d="M664.05,292.67c-25.29,2.56-51.67,3.08-75.19-6.57c-24.2-9.94-42.96-29.62-65.51-42.88
		c-45.92-27-103.54-25.04-155.35-12.63c-106.27,25.45-199.8,90.55-275.35,169.5c-29.8,31.14-57.18,64.59-81.86,99.92H750V276.36
		C721.88,284.24,693.1,289.73,664.05,292.67z"/>
</g>
<g>
	<g>
		<linearGradient id="SVGID_4_" gradientUnits="userSpaceOnUse" x1="581.5927" y1="153.3401" x2="711.1773" y2="153.3401">
			<stop  offset="0" style="stop-color:#843C71"/>
			<stop  offset="1" style="stop-color:#906BD6"/>
		</linearGradient>
		<path class="st3" d="M705.06,158.84c-10.51-16.7-27.6-30.19-48.53-27.14c-5.25,0.76-10.02,2.75-14.69,5.2
			c-9.01,4.72-15.84,12.47-24.9,17.08c-6.69,3.4-14.26,3.22-21.06,6.3c-5.27,2.39-9.99,6.3-12.74,11.41
			c-0.61,1.13-1.14,2.42-1.55,3.72h129.58C709.86,169.5,708.38,164.11,705.06,158.84z"/>
		<linearGradient id="SVGID_5_" gradientUnits="userSpaceOnUse" x1="52.2043" y1="273.9684" x2="167.4673" y2="273.9684">
			<stop  offset="0" style="stop-color:#843C71"/>
			<stop  offset="1" style="stop-color:#906BD6"/>
		</linearGradient>
		<path class="st4" d="M166.57,292.05c-1.87-3.78-4.45-7.07-7.44-10.09c-5.49-5.55-12.75-4.51-18.93-8.26
			c-0.91-0.55-1.67-1.55-2.42-2.31c-2.37-2.39-4.47-4.99-6.58-7.59c-3.8-4.69-9.07-7.91-14.94-9.12
			c-9.65-1.98-20.46,2.01-26.84,9.39c-3.23,3.73-6.18,8.81-10.79,11.09c-3.57,1.76-7.28,1.8-11.02,2.85
			c-5.27,1.48-10.12,4.9-12.87,9.66c-0.87,1.51-2.35,3.97-2.54,6.08h115.26C167.17,293.13,166.81,292.54,166.57,292.05z"/>
	</g>
	<g>
		<g>
			<circle class="st5" cx="189.44" cy="293.75" r="1.76"/>
			<circle class="st5" cx="196.96" cy="399.28" r="1.76"/>
			<circle class="st5" cx="579.84" cy="328.49" r="1.76"/>
			<circle class="st5" cx="129.21" cy="225.23" r="1.76"/>
			<circle class="st5" cx="644.63" cy="74.5" r="1.76"/>
			<circle class="st5" cx="151.5" cy="46.02" r="1.76"/>
			<circle class="st5" cx="86.71" cy="360.77" r="1.76"/>
			<circle class="st5" cx="589.8" cy="314.44" r="1.76"/>
			<circle class="st5" cx="692.82" cy="98.91" r="1.76"/>
			<path class="st5" d="M87.24,133.48c0,0.29-0.24,0.53-0.53,0.53c-0.29,0-0.53-0.24-0.53-0.53c0-0.29,0.24-0.53,0.53-0.53
				C87,132.96,87.24,133.19,87.24,133.48z"/>
			<path class="st5" d="M519.08,21.86c0,0.29-0.24,0.53-0.53,0.53c-0.29,0-0.53-0.24-0.53-0.53c0-0.29,0.24-0.53,0.53-0.53
				C518.85,21.34,519.08,21.57,519.08,21.86z"/>
			<circle class="st5" cx="680.95" cy="104.79" r="0.53"/>
			<path class="st5" d="M699.3,389.02c0,0.29-0.24,0.53-0.53,0.53s-0.53-0.24-0.53-0.53s0.24-0.53,0.53-0.53
				S699.3,388.73,699.3,389.02z"/>
			<path class="st5" d="M53.24,483.37c0,0.29-0.24,0.53-0.53,0.53s-0.53-0.24-0.53-0.53s0.24-0.53,0.53-0.53
				S53.24,483.08,53.24,483.37z"/>
			<path class="st5" d="M76.41,152.1c0,0.27-0.22,0.48-0.48,0.48c-0.27,0-0.48-0.22-0.48-0.48c0-0.27,0.22-0.48,0.48-0.48
				C76.2,151.61,76.41,151.83,76.41,152.1z"/>
			<circle class="st5" cx="96.41" cy="350.87" r="0.48"/>
		</g>
		<path class="st5" d="M127.25,317.96c-0.85,6.07-4.32,10.84-8.71,12.02c-0.22,0.06-0.22,0.49,0,0.55c4.4,1.17,7.86,5.95,8.71,12.02
			c0.04,0.31,0.36,0.31,0.4,0c0.85-6.07,4.32-10.84,8.71-12.02c0.22-0.06,0.22-0.49,0-0.55c-4.4-1.17-7.87-5.95-8.71-12.02
			C127.61,317.65,127.29,317.65,127.25,317.96z"/>
		<path class="st5" d="M562.57,121.19c-0.85,6.07-4.32,10.84-8.71,12.02c-0.22,0.06-0.22,0.49,0,0.55c4.4,1.17,7.86,5.95,8.71,12.02
			c0.04,0.31,0.36,0.31,0.4,0c0.85-6.07,4.32-10.84,8.71-12.02c0.22-0.06,0.22-0.49,0-0.55c-4.4-1.17-7.87-5.95-8.71-12.02
			C562.93,120.88,562.61,120.88,562.57,121.19z"/>
	</g>
</g>
</svg>
